<?xml version="1.0" encoding="iso-8859-1"?>
<!-- Generator: Adobe Illustrator 19.0.0, SVG Export Plug-In . SVG Version: 6.00 Build 0)  -->
<svg version="1.1" id="Layer_1" xmlns="http://www.w3.org/2000/svg" xmlns:xlink="http://www.w3.org/1999/xlink" x="0px" y="0px"
	 viewBox="0 0 512 512" style="enable-background:new 0 0 512 512;" xml:space="preserve">
<path style="fill:#953A3C;" d="M367.599,503.576H88.135l0,0c0-18.61,15.085-33.695,33.695-33.695h212.073
	C352.514,469.881,367.599,484.966,367.599,503.576L367.599,503.576z"/>
<path style="fill:#D65A4D;" d="M322.851,469.881H132.884l0,0c0-18.61,15.085-33.695,33.695-33.695h122.576
	C307.765,436.186,322.851,451.271,322.851,469.881L322.851,469.881z"/>
<path style="fill:#932228;" d="M333.904,469.881h-52.789c18.61,0,33.695,15.085,33.695,33.695l0,0h52.789l0,0
	C367.599,484.966,352.514,469.881,333.904,469.881z"/>
<path style="fill:#D3463C;" d="M289.156,436.186h-52.789c18.61,0,33.695,15.085,33.695,33.695l0,0h52.789l0,0
	C322.851,451.271,307.765,436.186,289.156,436.186z"/>
<path style="fill:#E6E6E6;" d="M222.975,0L222.975,0c-4.652,0-8.424,3.772-8.424,8.424v427.762h16.848V8.424
	C231.399,3.772,227.627,0,222.975,0z"/>
<path style="fill:#FF705B;" d="M423.861,69.356H222.975v-46.05h184.514c9.043,0,16.372,7.33,16.372,16.373V69.356z"/>
<rect x="222.971" y="69.356" style="fill:#E6E6E6;" width="200.891" height="46.05"/>
<path style="fill:#42A555;" d="M407.489,161.456H222.975v-46.05h200.886v29.678C423.861,154.126,416.531,161.456,407.489,161.456z"
	/>
<rect x="214.548" y="23.306" style="fill:#F44A46;" width="16.848" height="46.05"/>
<rect x="214.548" y="69.356" style="fill:#D1D1D1;" width="16.848" height="46.05"/>
<rect x="214.548" y="115.406" style="fill:#427451;" width="16.848" height="46.05"/>
<circle style="fill:#5388B4;" cx="324.338" cy="92.381" r="23.025"/>
<path d="M402.302,69.356c0-4.652-3.772-8.424-8.424-8.424H250.862c-4.652,0-8.424,3.772-8.424,8.424
	c0,4.652,3.772,8.424,8.424,8.424h45.631c-2.299,4.367-3.608,9.332-3.608,14.601s1.309,10.234,3.608,14.601h-42.262h-3.37
	c-4.652,0-8.424,3.772-8.424,8.424c0,4.652,3.772,8.424,8.424,8.424h3.37h139.648c4.652,0,8.424-3.772,8.424-8.424
	c0-4.652-3.772-8.424-8.424-8.424h-41.703c2.299-4.367,3.608-9.332,3.608-14.601s-1.309-10.234-3.608-14.601h41.703
	C398.53,77.78,402.302,74.008,402.302,69.356z M338.935,92.381c0,8.051-6.55,14.601-14.601,14.601s-14.601-6.55-14.601-14.601
	s6.55-14.601,14.601-14.601S338.935,84.33,338.935,92.381z"/>
<path d="M407.489,14.882h-176.09V8.424c0-4.652-3.772-8.424-8.424-8.424c-4.652,0-8.424,3.772-8.424,8.424v419.338h-47.972
	c-20.341,0-37.358,14.493-41.271,33.695h-3.476c-23.225,0-42.119,18.894-42.119,42.119c0,4.652,3.772,8.424,8.424,8.424H367.6
	c4.652,0,8.424-3.772,8.424-8.424c0-23.225-18.894-42.119-42.119-42.119h-3.476c-3.913-19.202-20.93-33.695-41.271-33.695h-57.757
	V169.88h176.09c13.672,0,24.796-11.123,24.796-24.796v-29.678v-46.05V39.678C432.285,26.005,421.162,14.882,407.489,14.882z
	 M357.732,495.152H98.003c3.476-9.805,12.846-16.848,23.828-16.848h11.053h189.967h11.053
	C344.886,478.305,354.256,485.346,357.732,495.152z M312.984,461.457H142.751c3.476-9.805,12.846-16.848,23.828-16.848h122.576
	C300.139,444.61,309.507,451.651,312.984,461.457z M415.437,145.084c0,4.383-3.566,7.949-7.949,7.949h-176.09v-37.626v-46.05V31.73
	h176.09c4.383,0,7.949,3.566,7.949,7.949v29.678v46.05V145.084z"/>
<g>
</g>
<g>
</g>
<g>
</g>
<g>
</g>
<g>
</g>
<g>
</g>
<g>
</g>
<g>
</g>
<g>
</g>
<g>
</g>
<g>
</g>
<g>
</g>
<g>
</g>
<g>
</g>
<g>
</g>
</svg>
